<svg version="1.1" xmlns="http://www.w3.org/2000/svg" viewBox="0 0 2888.6514282226562 1593.5809936523438" width="2888.6514282226562" height="1593.5809936523438">
  <!-- svg-source:excalidraw -->
  
  <defs>
    <style>
      @font-face {
        font-family: "Virgil";
        src: url("https://excalidraw.com/Virgil.woff2");
      }
      @font-face {
        font-family: "Cascadia";
        src: url("https://excalidraw.com/Cascadia.woff2");
      }
    </style>
  </defs>
  <rect x="0" y="0" width="2888.6514282226562" height="1593.5809936523438" fill="#ffffff"></rect><g stroke-linecap="round" transform="translate(924.5293579101562 553.9520874023438) rotate(0 175.5 105.82000732421875)"><path d="M0 0 C108.46 0, 216.93 0, 351 0 M0 0 C92.97 0, 185.94 0, 351 0 M351 0 C351 65, 351 130, 351 211.64 M351 0 C351 53.53, 351 107.06, 351 211.64 M351 211.64 C227.19 211.64, 103.38 211.64, 0 211.64 M351 211.64 C224.56 211.64, 98.12 211.64, 0 211.64 M0 211.64 C0 135.68, 0 59.73, 0 0 M0 211.64 C0 145.62, 0 79.59, 0 0" stroke="#000000" stroke-width="1" fill="none"></path></g><g transform="translate(929.5293579101562 638.7720947265625) rotate(0 170.5 21)"><text x="170.5" y="33" font-family="Helvetica, Segoe UI Emoji" font-size="36px" fill="#000000" text-anchor="middle" style="white-space: pre;" direction="ltr">Blob (also File)</text></g><g stroke-linecap="round" transform="translate(2262.6576538085938 558.0317993164062) rotate(0 175.5 105.82000732421875)"><path d="M0 0 C91.53 0, 183.06 0, 351 0 M0 0 C84.14 0, 168.28 0, 351 0 M351 0 C351 46.01, 351 92.02, 351 211.64 M351 0 C351 46.19, 351 92.39, 351 211.64 M351 211.64 C243.34 211.64, 135.68 211.64, 0 211.64 M351 211.64 C225.28 211.64, 99.56 211.64, 0 211.64 M0 211.64 C0 148.23, 0 84.81, 0 0 M0 211.64 C0 147.75, 0 83.86, 0 0" stroke="#000000" stroke-width="1" fill="none"></path></g><g transform="translate(2267.6576538085938 642.851806640625) rotate(0 170.5 21)"><text x="170.5" y="33" font-family="Helvetica, Segoe UI Emoji" font-size="36px" fill="#000000" text-anchor="middle" style="white-space: pre;" direction="ltr">String</text></g><g stroke-linecap="round" transform="translate(930.5036010742188 1356.4664916992188) rotate(0 175.5 105.82000732421875)"><path d="M0 0 C124.28 0, 248.55 0, 351 0 M0 0 C124.45 0, 248.91 0, 351 0 M351 0 C351 50.57, 351 101.15, 351 211.64 M351 0 C351 59.91, 351 119.82, 351 211.64 M351 211.64 C228.26 211.64, 105.51 211.64, 0 211.64 M351 211.64 C259.08 211.64, 167.16 211.64, 0 211.64 M0 211.64 C0 162.85, 0 114.05, 0 0 M0 211.64 C0 151.34, 0 91.04, 0 0" stroke="#000000" stroke-width="1" fill="none"></path></g><g transform="translate(935.5036010742188 1441.2864990234375) rotate(0 170.5 21)"><text x="170.5" y="33" font-family="Helvetica, Segoe UI Emoji" font-size="36px" fill="#000000" text-anchor="middle" style="white-space: pre;" direction="ltr">TypedArray</text></g><g stroke-linecap="round"><g transform="translate(1288.5155639648438 595.3239848888218) rotate(0 480.4908752441406 1.0280013695404762)"><path d="M0 0 C160.16 0.34, 800.82 1.71, 960.98 2.06 M0 0 C160.16 0.34, 800.82 1.71, 960.98 2.06" stroke="#000000" stroke-width="4" fill="none"></path></g><g transform="translate(1288.5155639648438 595.3239848888218) rotate(0 480.4908752441406 1.0280013695404762)"><path d="M960.98 2.06 L947.37 8.37 L947.4 -4.31 L960.98 2.06" stroke="none" stroke-width="0" fill="#000000" fill-rule="evenodd"></path><path d="M960.98 2.06 C956.87 3.96, 952.77 5.87, 947.37 8.37 M960.98 2.06 C956.62 4.08, 952.25 6.1, 947.37 8.37 M947.37 8.37 C947.38 5.44, 947.39 2.51, 947.4 -4.31 M947.37 8.37 C947.38 5.49, 947.39 2.61, 947.4 -4.31 M947.4 -4.31 C951.63 -2.33, 955.85 -0.35, 960.98 2.06 M947.4 -4.31 C951.19 -2.54, 954.97 -0.76, 960.98 2.06 M960.98 2.06 C960.98 2.06, 960.98 2.06, 960.98 2.06 M960.98 2.06 C960.98 2.06, 960.98 2.06, 960.98 2.06" stroke="#000000" stroke-width="4" fill="none"></path></g></g><g transform="translate(1445.0463256835938 545.9402465820312) rotate(0 348.5 22)"><text x="0" y="35" font-family="Cascadia, Segoe UI Emoji" font-size="36px" fill="#000000" text-anchor="start" style="white-space: pre;" direction="ltr">await (new Response(blob)).text()</text></g><g stroke-linecap="round" transform="translate(2254.310089111328 23.94366455078125) rotate(0 175.5 105.82000732421875)"><path d="M0 0 C136.64 0, 273.28 0, 351 0 M0 0 C86.31 0, 172.62 0, 351 0 M351 0 C351 68.64, 351 137.28, 351 211.64 M351 0 C351 57.77, 351 115.55, 351 211.64 M351 211.64 C234.93 211.64, 118.86 211.64, 0 211.64 M351 211.64 C273.15 211.64, 195.3 211.64, 0 211.64 M0 211.64 C0 138.72, 0 65.8, 0 0 M0 211.64 C0 152.3, 0 92.96, 0 0" stroke="#000000" stroke-width="1" fill="none"></path></g><g transform="translate(2259.310089111328 108.763671875) rotate(0 170.5 21)"><text x="170.5" y="33" font-family="Helvetica, Segoe UI Emoji" font-size="36px" fill="#000000" text-anchor="middle" style="white-space: pre;" direction="ltr">POJO</text></g><g stroke-linecap="round"><g transform="translate(2241.4855171211548 723.6672973632812) rotate(0 -473.75289951426134 1.274780491405977)"><path d="M0 0 C-157.92 0.42, -789.59 2.12, -947.51 2.55 M0 0 C-157.92 0.42, -789.59 2.12, -947.51 2.55" stroke="#000000" stroke-width="4" fill="none"></path></g><g transform="translate(2241.4855171211548 723.6672973632812) rotate(0 -473.75289951426134 1.274780491405977)"><path d="M-947.51 2.55 L-933.93 -3.83 L-933.89 8.85 L-947.51 2.55" stroke="none" stroke-width="0" fill="#000000" fill-rule="evenodd"></path><path d="M-947.51 2.55 C-942.4 0.15, -937.3 -2.24, -933.93 -3.83 M-947.51 2.55 C-943.96 0.88, -940.41 -0.78, -933.93 -3.83 M-933.93 -3.83 C-933.92 0.81, -933.9 5.44, -933.89 8.85 M-933.93 -3.83 C-933.92 -0.5, -933.91 2.82, -933.89 8.85 M-933.89 8.85 C-939.08 6.45, -944.27 4.05, -947.51 2.55 M-933.89 8.85 C-939.24 6.38, -944.58 3.91, -947.51 2.55 M-947.51 2.55 C-947.51 2.55, -947.51 2.55, -947.51 2.55 M-947.51 2.55 C-947.51 2.55, -947.51 2.55, -947.51 2.55" stroke="#000000" stroke-width="4" fill="none"></path></g></g><g transform="translate(1356.0426635742188 744.6238403320312) rotate(0 443.5 22)"><text x="0" y="35" font-family="Cascadia, Segoe UI Emoji" font-size="36px" fill="#000000" text-anchor="start" style="white-space: pre;" direction="ltr">new Blob(string, { type: mimeTypeString })</text></g><g stroke-linecap="round"><g transform="translate(2434.267979734666 250.73406982421875) rotate(0 0.09793525084410248 147.68692016601565)"><path d="M0 0 C0.03 49.23, 0.16 246.14, 0.2 295.37 M0 0 C0.03 49.23, 0.16 246.14, 0.2 295.37" stroke="#000000" stroke-width="4" fill="none"></path></g><g transform="translate(2434.267979734666 250.73406982421875) rotate(0 0.09793525084410248 147.68692016601565)"><path d="M0.2 295.37 L-6.15 281.78 L6.53 281.78 L0.2 295.37" stroke="none" stroke-width="0" fill="#000000" fill-rule="evenodd"></path><path d="M0.2 295.37 C-1.2 292.38, -2.6 289.38, -6.15 281.78 M0.2 295.37 C-1.98 290.72, -4.15 286.07, -6.15 281.78 M-6.15 281.78 C-1.36 281.78, 3.42 281.78, 6.53 281.78 M-6.15 281.78 C-2.1 281.78, 1.96 281.78, 6.53 281.78 M6.53 281.78 C5.2 284.62, 3.88 287.46, 0.2 295.37 M6.53 281.78 C4.6 285.91, 2.68 290.05, 0.2 295.37 M0.2 295.37 C0.2 295.37, 0.2 295.37, 0.2 295.37 M0.2 295.37 C0.2 295.37, 0.2 295.37, 0.2 295.37" stroke="#000000" stroke-width="4" fill="none"></path></g></g><g transform="translate(2476.6514282226562 350.9071044921875) rotate(0 201 22)"><text x="0" y="35" font-family="Cascadia, Segoe UI Emoji" font-size="36px" fill="#000000" text-anchor="start" style="white-space: pre;" direction="ltr">JSON.stringify(obj)</text></g><g stroke-linecap="round" transform="translate(915.9198608398438 10) rotate(0 175.5 105.82000732421875)"><path d="M0 0 C105.93 0, 211.85 0, 351 0 M0 0 C81.01 0, 162.03 0, 351 0 M351 0 C351 83.11, 351 166.23, 351 211.64 M351 0 C351 55.62, 351 111.24, 351 211.64 M351 211.64 C266.73 211.64, 182.47 211.64, 0 211.64 M351 211.64 C211.83 211.64, 72.66 211.64, 0 211.64 M0 211.64 C0 135.11, 0 58.58, 0 0 M0 211.64 C0 131.76, 0 51.89, 0 0" stroke="#000000" stroke-width="1" fill="none"></path></g><g transform="translate(920.9198608398438 94.82000732421875) rotate(0 170.5 21)"><text x="170.5" y="33" font-family="Helvetica, Segoe UI Emoji" font-size="36px" fill="#000000" text-anchor="middle" style="white-space: pre;" direction="ltr">URL</text></g><g stroke-linecap="round"><g transform="translate(1104.7602960984602 542.9297485351562) rotate(0 0.8914349897726197 -152.92462158203125)"><path d="M0 0 C0.3 -50.97, 1.49 -254.87, 1.78 -305.85 M0 0 C0.3 -50.97, 1.49 -254.87, 1.78 -305.85" stroke="#000000" stroke-width="4" fill="none"></path></g><g transform="translate(1104.7602960984602 542.9297485351562) rotate(0 0.8914349897726197 -152.92462158203125)"><path d="M1.78 -305.85 L8.04 -292.22 L-4.64 -292.29 L1.78 -305.85" stroke="none" stroke-width="0" fill="#000000" fill-rule="evenodd"></path><path d="M1.78 -305.85 C4.01 -301, 6.23 -296.16, 8.04 -292.22 M1.78 -305.85 C3.2 -302.76, 4.62 -299.68, 8.04 -292.22 M8.04 -292.22 C5.29 -292.23, 2.53 -292.25, -4.64 -292.29 M8.04 -292.22 C3.91 -292.24, -0.22 -292.27, -4.64 -292.29 M-4.64 -292.29 C-2.6 -296.59, -0.57 -300.89, 1.78 -305.85 M-4.64 -292.29 C-2.68 -296.42, -0.73 -300.55, 1.78 -305.85 M1.78 -305.85 C1.78 -305.85, 1.78 -305.85, 1.78 -305.85 M1.78 -305.85 C1.78 -305.85, 1.78 -305.85, 1.78 -305.85" stroke="#000000" stroke-width="4" fill="none"></path></g></g><g transform="translate(535.49267578125 271.8096923828125) rotate(0 264.5 22)"><text x="0" y="35" font-family="Cascadia, Segoe UI Emoji" font-size="36px" fill="#000000" text-anchor="start" style="white-space: pre;" direction="ltr">URL.createObjectURL(blob)</text></g><g stroke-linecap="round" transform="translate(2221.6806030273438 1371.9409790039062) rotate(0 175.5 105.82000732421875)"><path d="M0 0 C109.61 0, 219.22 0, 351 0 M0 0 C76.65 0, 153.31 0, 351 0 M351 0 C351 49.1, 351 98.19, 351 211.64 M351 0 C351 66.03, 351 132.05, 351 211.64 M351 211.64 C253.37 211.64, 155.73 211.64, 0 211.64 M351 211.64 C255.12 211.64, 159.23 211.64, 0 211.64 M0 211.64 C0 164.73, 0 117.82, 0 0 M0 211.64 C0 138.75, 0 65.86, 0 0" stroke="#000000" stroke-width="1" fill="none"></path></g><g transform="translate(2226.6806030273438 1456.760986328125) rotate(0 170.5 21)"><text x="170.5" y="33" font-family="Helvetica, Segoe UI Emoji" font-size="36px" fill="#000000" text-anchor="middle" style="white-space: pre;" direction="ltr">ArrayBuffer</text></g><g stroke-linecap="round"><g transform="translate(1093.2786649173345 780.7017211914062) rotate(0 3.5741191715125353 276.2305297851563)"><path d="M0 0 C1.19 92.08, 5.96 460.38, 7.15 552.46 M0 0 C1.19 92.08, 5.96 460.38, 7.15 552.46" stroke="#000000" stroke-width="4" fill="none"></path></g><g transform="translate(1093.2786649173345 780.7017211914062) rotate(0 3.5741191715125353 276.2305297851563)"><path d="M7.15 552.46 L0.63 538.95 L13.31 538.79 L7.15 552.46" stroke="none" stroke-width="0" fill="#000000" fill-rule="evenodd"></path><path d="M7.15 552.46 C5.43 548.91, 3.72 545.35, 0.63 538.95 M7.15 552.46 C5.1 548.22, 3.05 543.97, 0.63 538.95 M0.63 538.95 C4.01 538.91, 7.39 538.86, 13.31 538.79 M0.63 538.95 C3.8 538.91, 6.96 538.87, 13.31 538.79 M13.31 538.79 C12.06 541.56, 10.81 544.33, 7.15 552.46 M13.31 538.79 C12.02 541.66, 10.72 544.53, 7.15 552.46 M7.15 552.46 C7.15 552.46, 7.15 552.46, 7.15 552.46 M7.15 552.46 C7.15 552.46, 7.15 552.46, 7.15 552.46" stroke="#000000" stroke-width="4" fill="none"></path></g></g><g transform="translate(210.73516845703125 1100.7184448242188) rotate(0 422 109)"><text x="0" y="34.6" font-family="Cascadia, Segoe UI Emoji" font-size="36px" fill="#000000" text-anchor="start" style="white-space: pre;" direction="ltr">const fr = new FileReader();</text><text x="0" y="78.2" font-family="Cascadia, Segoe UI Emoji" font-size="36px" fill="#000000" text-anchor="start" style="white-space: pre;" direction="ltr">fr.addEventListenerer('loadend', () =&gt; {</text><text x="0" y="121.80000000000001" font-family="Cascadia, Segoe UI Emoji" font-size="36px" fill="#000000" text-anchor="start" style="white-space: pre;" direction="ltr">    // fr.result is a typed array</text><text x="0" y="165.4" font-family="Cascadia, Segoe UI Emoji" font-size="36px" fill="#000000" text-anchor="start" style="white-space: pre;" direction="ltr">});</text><text x="0" y="209" font-family="Cascadia, Segoe UI Emoji" font-size="36px" fill="#000000" text-anchor="start" style="white-space: pre;" direction="ltr">fr.readAsArrayBuffer(blob);</text></g><g transform="translate(1621.3807983398438 605.2319946289062) rotate(0 180 22)"><text x="0" y="35" font-family="Cascadia, Segoe UI Emoji" font-size="36px" fill="#000000" text-anchor="start" style="white-space: pre;" direction="ltr">await blob.text()</text></g><g stroke-linecap="round"><g transform="translate(2407.1033929468726 539.0347900390625) rotate(0 -0.0005702237067453098 -145.8333740234375)"><path d="M0 0 C0 -48.61, 0 -243.06, 0 -291.67 M0 0 C0 -48.61, 0 -243.06, 0 -291.67" stroke="#000000" stroke-width="4" fill="none"></path></g><g transform="translate(2407.1033929468726 539.0347900390625) rotate(0 -0.0005702237067453098 -145.8333740234375)"><path d="M0 -291.67 L6.34 -278.07 L-6.34 -278.07 L0 -291.67" stroke="none" stroke-width="0" fill="#000000" fill-rule="evenodd"></path><path d="M0 -291.67 C1.87 -287.66, 3.74 -283.64, 6.34 -278.07 M0 -291.67 C1.83 -287.74, 3.66 -283.82, 6.34 -278.07 M6.34 -278.07 C1.74 -278.07, -2.86 -278.07, -6.34 -278.07 M6.34 -278.07 C2.49 -278.07, -1.36 -278.07, -6.34 -278.07 M-6.34 -278.07 C-4.22 -282.62, -2.1 -287.17, 0 -291.67 M-6.34 -278.07 C-4.55 -281.9, -2.77 -285.74, 0 -291.67 M0 -291.67 C0 -291.67, 0 -291.67, 0 -291.67 M0 -291.67 C0 -291.67, 0 -291.67, 0 -291.67" stroke="#000000" stroke-width="4" fill="none"></path></g></g><g transform="translate(2030.2207641601562 350.04437255859375) rotate(0 169.5 22)"><text x="0" y="35" font-family="Cascadia, Segoe UI Emoji" font-size="36px" fill="#000000" text-anchor="start" style="white-space: pre;" direction="ltr">JSON.parse(text)</text></g><g stroke-linecap="round"><g transform="translate(2202.1651000976562 1466.5305062374418) rotate(0 -455.367919921875 -2.731410717276276)"><path d="M0 0 C-151.79 -0.91, -758.95 -4.55, -910.74 -5.46 M0 0 C-151.79 -0.91, -758.95 -4.55, -910.74 -5.46" stroke="#000000" stroke-width="4" fill="none"></path></g><g transform="translate(2202.1651000976562 1466.5305062374418) rotate(0 -455.367919921875 -2.731410717276276)"><path d="M-910.74 -5.46 L-897.1 -11.72 L-897.18 0.96 L-910.74 -5.46" stroke="none" stroke-width="0" fill="#000000" fill-rule="evenodd"></path><path d="M-910.74 -5.46 C-907.29 -7.04, -903.84 -8.63, -897.1 -11.72 M-910.74 -5.46 C-906.21 -7.54, -901.68 -9.62, -897.1 -11.72 M-897.1 -11.72 C-897.12 -8.79, -897.14 -5.86, -897.18 0.96 M-897.1 -11.72 C-897.13 -7.41, -897.16 -3.11, -897.18 0.96 M-897.18 0.96 C-900.95 -0.83, -904.72 -2.61, -910.74 -5.46 M-897.18 0.96 C-901.22 -0.95, -905.25 -2.87, -910.74 -5.46 M-910.74 -5.46 C-910.74 -5.46, -910.74 -5.46, -910.74 -5.46 M-910.74 -5.46 C-910.74 -5.46, -910.74 -5.46, -910.74 -5.46" stroke="#000000" stroke-width="4" fill="none"></path></g></g><g transform="translate(1442.6135864257812 1399.0545043945312) rotate(0 285.5 22)"><text x="0" y="35" font-family="Cascadia, Segoe UI Emoji" font-size="36px" fill="#000000" text-anchor="start" style="white-space: pre;" direction="ltr">new Uint8Array(arrayBuffer)</text></g><g stroke-linecap="round" transform="translate(10 537.5172119140625) rotate(0 175.5 105.82000732421875)"><path d="M0 0 C83.11 0, 166.23 0, 351 0 M0 0 C99.56 0, 199.11 0, 351 0 M351 0 C351 47.3, 351 94.6, 351 211.64 M351 0 C351 77.97, 351 155.94, 351 211.64 M351 211.64 C254.74 211.64, 158.49 211.64, 0 211.64 M351 211.64 C258.74 211.64, 166.47 211.64, 0 211.64 M0 211.64 C0 163.91, 0 116.18, 0 0 M0 211.64 C0 149.46, 0 87.27, 0 0" stroke="#000000" stroke-width="1" fill="none"></path></g><g transform="translate(15 622.3372192382812) rotate(0 170.5 21)"><text x="170.5" y="33" font-family="Helvetica, Segoe UI Emoji" font-size="36px" fill="#000000" text-anchor="middle" style="white-space: pre;" direction="ltr">ReadableStream</text></g><g stroke-linecap="round"><g transform="translate(914.8092651367188 643.8360473658424) rotate(0 -271.62916564941406 1.3138967876858203)"><path d="M0 0 C-90.54 0.44, -452.72 2.19, -543.26 2.63 M0 0 C-90.54 0.44, -452.72 2.19, -543.26 2.63" stroke="#000000" stroke-width="4" fill="none"></path></g><g transform="translate(914.8092651367188 643.8360473658424) rotate(0 -271.62916564941406 1.3138967876858203)"><path d="M-543.26 2.63 L-529.69 -3.78 L-529.63 8.9 L-543.26 2.63" stroke="none" stroke-width="0" fill="#000000" fill-rule="evenodd"></path><path d="M-543.26 2.63 C-540.43 1.29, -537.61 -0.04, -529.69 -3.78 M-543.26 2.63 C-539.78 0.99, -536.3 -0.66, -529.69 -3.78 M-529.69 -3.78 C-529.68 0.14, -529.66 4.06, -529.63 8.9 M-529.69 -3.78 C-529.68 0.2, -529.66 4.17, -529.63 8.9 M-529.63 8.9 C-532.68 7.5, -535.73 6.1, -543.26 2.63 M-529.63 8.9 C-533.35 7.19, -537.08 5.47, -543.26 2.63 M-543.26 2.63 C-543.26 2.63, -543.26 2.63, -543.26 2.63 M-543.26 2.63 C-543.26 2.63, -543.26 2.63, -543.26 2.63" stroke="#000000" stroke-width="4" fill="none"></path></g></g><g transform="translate(507.9512939453125 563.2086791992188) rotate(0 137.5 22)"><text x="0" y="35" font-family="Cascadia, Segoe UI Emoji" font-size="36px" fill="#000000" text-anchor="start" style="white-space: pre;" direction="ltr">blob.stream()</text></g><g stroke-linecap="round"><g transform="translate(1101.2877807617188 781.2048950195312) rotate(0 631.8848266601562 285.80883789062506)"><path d="M0 0 C210.63 95.27, 1053.14 476.35, 1263.77 571.62 M0 0 C210.63 95.27, 1053.14 476.35, 1263.77 571.62" stroke="#000000" stroke-width="4" fill="none"></path></g><g transform="translate(1101.2877807617188 781.2048950195312) rotate(0 631.8848266601562 285.80883789062506)"><path d="M1263.77 571.62 L1248.77 571.79 L1254 560.24 L1263.77 571.62" stroke="none" stroke-width="0" fill="#000000" fill-rule="evenodd"></path><path d="M1263.77 571.62 C1259.07 571.67, 1254.38 571.73, 1248.77 571.79 M1263.77 571.62 C1259.02 571.67, 1254.27 571.73, 1248.77 571.79 M1248.77 571.79 C1249.83 569.45, 1250.89 567.11, 1254 560.24 M1248.77 571.79 C1250.77 567.38, 1252.76 562.97, 1254 560.24 M1254 560.24 C1257.53 564.36, 1261.07 568.48, 1263.77 571.62 M1254 560.24 C1256.1 562.69, 1258.21 565.14, 1263.77 571.62 M1263.77 571.62 C1263.77 571.62, 1263.77 571.62, 1263.77 571.62 M1263.77 571.62 C1263.77 571.62, 1263.77 571.62, 1263.77 571.62" stroke="#000000" stroke-width="4" fill="none"></path></g></g><g transform="translate(1534.5810391097461 1099.7309675848683) rotate(24.418971507240446 422.49999999999994 22)"><text x="0" y="35" font-family="Cascadia, Segoe UI Emoji" font-size="36px" fill="#000000" text-anchor="start" style="white-space: pre;" direction="ltr">await (new Response(blob)).arrayBuffer()</text></g></svg>